<svg width="17" height="16" viewBox="0 0 17 16" fill="none" xmlns="http://www.w3.org/2000/svg">
<path d="M16.3028 7.97323C15.8235 7.48524 15.7166 6.74384 16.0386 6.14023C16.2685 5.71005 16.2846 5.19853 16.0816 4.75423C15.8793 4.3106 15.4814 3.98661 15.0055 3.87907C14.3394 3.72783 13.848 3.16187 13.7936 2.48029C13.7539 1.99432 13.4904 1.55405 13.0797 1.29056C12.6704 1.0264 12.1609 0.969263 11.7018 1.13663C11.0592 1.36987 10.34 1.15814 9.92592 0.615032C9.63016 0.227864 9.1704 0 8.68241 0C8.19509 0 7.73533 0.227864 7.43957 0.615032C7.02754 1.15881 6.30832 1.37055 5.66573 1.1373C5.20731 0.970607 4.69781 1.02774 4.28779 1.29123C3.87777 1.55472 3.6136 1.99499 3.57462 2.48096C3.5195 3.16254 3.02882 3.72918 2.3627 3.87974C1.88681 3.98729 1.48889 4.31127 1.28657 4.7549C1.08424 5.19853 1.10038 5.71072 1.33026 6.14023C1.65222 6.74317 1.54535 7.48524 1.06677 7.97323C0.724634 8.32074 0.564659 8.80806 0.633892 9.29067C0.703125 9.77329 0.994173 10.1961 1.42033 10.4334C2.01721 10.7661 2.32909 11.4483 2.18928 12.1171C2.09048 12.5944 2.21886 13.0904 2.53814 13.4588C2.85809 13.8278 3.33129 14.0261 3.8166 13.9952C4.49952 13.9528 5.12934 14.3581 5.37401 14.996C5.5481 15.4517 5.92518 15.7993 6.39368 15.9364C6.86084 16.0735 7.36631 15.9848 7.75885 15.6964C8.30936 15.2911 9.06017 15.2911 9.61 15.6964C10.0025 15.9854 10.508 16.0742 10.9752 15.9364C11.4437 15.7993 11.8208 15.4511 11.9955 14.996C12.2395 14.3581 12.87 13.9521 13.5523 13.9952C14.0389 14.0261 14.5114 13.8278 14.8307 13.4588C15.15 13.0904 15.279 12.5944 15.1796 12.1171C15.0404 11.4483 15.3516 10.7661 15.9492 10.4334C16.3747 10.1954 16.6651 9.77329 16.735 9.29067C16.8049 8.80806 16.6442 8.32074 16.3028 7.97323V7.97323ZM7.84422 11.6231L4.81947 8.68976L6.06768 7.44155L7.84422 9.12599L11.6373 5.23819L12.8855 6.4864L7.84422 11.6231Z" fill="#F8765E"/>
</svg>
