<svg width="25" height="24" viewBox="0 0 25 24" fill="none" xmlns="http://www.w3.org/2000/svg">
<path d="M24.618 21.646L18.413 15.441C19.58 13.836 20.27 11.862 20.27 9.73C20.27 4.365 15.905 0 10.539 0C5.17402 0 0.809021 4.365 0.809021 9.73C0.809021 15.096 5.17402 19.46 10.539 19.46C12.573 19.46 14.462 18.833 16.026 17.762L22.264 24L24.618 21.646V21.646ZM3.66302 9.73C3.66302 5.938 6.74802 2.853 10.54 2.853C14.332 2.853 17.417 5.938 17.417 9.73C17.417 13.522 14.332 16.607 10.54 16.607C6.74702 16.607 3.66302 13.522 3.66302 9.73V9.73Z" fill="white"/>
</svg>
